Alegreya Sans SC-Black.ufo
<glyph name="exclam" format="1">
  <advance width="274"/>
  <unicode hex="0021"/>
  <outline>
    <contour>
      <point x="68" y="661" type="line"/>
      <point x="51" y="639" type="line"/>
      <point x="68" y="261" type="line"/>
      <point x="87" y="243" type="line"/>
      <point x="196" y="259" type="line"/>
      <point x="248" y="649" type="line"/>
      <point x="225" y="672" type="line"/>
    </contour>
    <component base="period" xOffset="11"/>
  </outline>
</glyph>
<glyph name="dollar" format="1">
  <advance width="469"/>
  <unicode hex="0024"/>
  <outline>
    <contour>
      <point x="161" y="89" type="line"/>
      <point x="149" y="-127" type="line"/>
      <point x="163" y="-142" type="line"/>
      <point x="278" y="-142" type="line"/>
      <point x="291" y="89" type="line"/>
    </contour>
    <contour>
      <point x="191" y="647" type="line"/>
      <point x="180" y="426" type="line"/>
      <point x="309" y="426" type="line"/>
      <point x="320" y="632" type="line"/>
      <point x="303" y="647" type="line"/>
    </contour>
    <component base="s"/>
  </outline>
</glyph>
<glyph name="percent" format="1">
  <advance width="889"/>
  <unicode hex="0025"/>
  <outline>
    <contour>
      <point x="160" y="516" type="move"/>
    </contour>
    <component base="zero.numr" yOffset="56" yScale="0.92"/>
    <component base="fraction" xOffset="376"/>
    <component base="zero.dnom" xOffset="513" yScale="0.92"/>
  </outline>
</glyph>
<glyph name="plus" format="1">
  <advance width="480"/>
  <unicode hex="002B"/>
  <outline>
    <contour>
      <point x="176" y="472" type="line"/>
      <point x="176" y="320" type="line"/>
      <point x="24" y="320" type="line"/>
      <point x="15" y="203" type="line"/>
      <point x="27" y="190" type="line"/>
      <point x="176" y="190" type="line"/>
      <point x="176" y="41" type="line"/>
      <point x="189" y="29" type="line"/>
      <point x="306" y="38" type="line"/>
      <point x="306" y="190" type="line"/>
      <point x="457" y="190" type="line"/>
      <point x="466" y="307" type="line"/>
      <point x="454" y="320" type="line"/>
      <point x="306" y="320" type="line"/>
      <point x="306" y="469" type="line"/>
      <point x="293" y="481" type="line"/>
    </contour>
  </outline>
</glyph>
<glyph name="period" format="1">
  <advance width="228"/>
  <unicode hex="002E"/>
  <outline>
    <contour>
      <point x="55" y="190"/>
      <point x="16" y="150"/>
      <point x="16" y="86" type="curve" smooth="yes"/>
      <point x="16" y="25"/>
      <point x="49" y="-9"/>
      <point x="110" y="-9" type="curve" smooth="yes"/>
      <point x="172" y="-9"/>
      <point x="211" y="31"/>
      <point x="211" y="95" type="curve" smooth="yes"/>
      <point x="211" y="155"/>
      <point x="177" y="190"/>
      <point x="118" y="190" type="curve" smooth="yes"/>
    </contour>
  </outline>
</glyph>
<glyph name="six" format="1">
  <advance width="498"/>
  <unicode hex="0036"/>
  <outline>
    <contour>
      <point x="303" y="598" type="line"/>
      <point x="123" y="510"/>
      <point x="18" y="375"/>
      <point x="18" y="220" type="curve" smooth="yes"/>
      <point x="18" y="77"/>
      <point x="104" y="-12"/>
      <point x="245" y="-12" type="curve" smooth="yes"/>
      <point x="405" y="-12"/>
      <point x="477" y="96"/>
      <point x="477" y="195" type="curve" smooth="yes"/>
      <point x="477" y="286"/>
      <point x="417" y="376"/>
      <point x="303" y="376" type="curve" smooth="yes"/>
      <point x="282" y="376"/>
      <point x="257" y="372"/>
      <point x="236" y="366" type="curve"/>
      <point x="202" y="406" type="line"/>
      <point x="178" y="226" type="line"/>
      <point x="203" y="236"/>
      <point x="225" y="241"/>
      <point x="244" y="241" type="curve" smooth="yes"/>
      <point x="284" y="241"/>
      <point x="301" y="219"/>
      <point x="301" y="176" type="curve" smooth="yes"/>
      <point x="301" y="134"/>
      <point x="284" y="113"/>
      <point x="250" y="113" type="curve" smooth="yes"/>
      <point x="200" y="113"/>
      <point x="195" y="153"/>
      <point x="195" y="223" type="curve" smooth="yes"/>
      <point x="195" y="372"/>
      <point x="244" y="416"/>
      <point x="436" y="493" type="curve"/>
      <point x="436" y="512" type="line"/>
      <point x="312" y="598" type="line"/>
    </contour>
  </outline>
</glyph>
<glyph name="greater" format="1">
  <advance width="480"/>
  <unicode hex="003E"/>
  <outline>
    <contour>
      <point x="32" y="369" type="line"/>
      <point x="39" y="356" type="line"/>
      <point x="316" y="264" type="line"/>
      <point x="316" y="255" type="line"/>
      <point x="40" y="164" type="line"/>
      <point x="66" y="56" type="line"/>
      <point x="82" y="43" type="line"/>
      <point x="449" y="177" type="line"/>
      <point x="449" y="333" type="line"/>
      <point x="437" y="350" type="line"/>
      <point x="72" y="480" type="line"/>
    </contour>
  </outline>
</glyph>
<glyph name="question" format="1">
  <advance width="351"/>
  <unicode hex="003F"/>
  <outline>
    <contour>
      <point x="66" y="668" type="line"/>
      <point x="31" y="560" type="line"/>
      <point x="45" y="542" type="line"/>
      <point x="172" y="534"/>
      <point x="207" y="516"/>
      <point x="207" y="480" type="curve" smooth="yes"/>
      <point x="207" y="455"/>
      <point x="190" y="435"/>
      <point x="159" y="422" type="curve" smooth="yes"/>
      <point x="75" y="389" type="line"/>
      <point x="69" y="378" type="line"/>
      <point x="82" y="252" type="line"/>
      <point x="95" y="240" type="line"/>
      <point x="231" y="260" type="line"/>
      <point x="224" y="331" type="line"/>
      <point x="227" y="337" type="line"/>
      <point x="285" y="367" type="line" smooth="yes"/>
      <point x="349" y="401"/>
      <point x="384" y="453"/>
      <point x="384" y="510" type="curve" smooth="yes"/>
      <point x="384" y="611"/>
      <point x="275" y="669"/>
      <point x="83" y="677" type="curve"/>
    </contour>
    <component base="period" xOffset="53"/>
  </outline>
</glyph>
<glyph name="K" format="1">
  <advance width="628"/>
  <unicode hex="004B"/>
  <outline>
    <contour>
      <point x="415" y="647" type="line"/>
      <point x="381" y="577" type="line"/>
      <point x="237" y="344" type="line"/>
      <point x="237" y="332" type="line"/>
      <point x="296" y="218"/>
      <point x="358" y="109"/>
      <point x="422" y="0" type="curve"/>
      <point x="444" y="-12" type="line"/>
      <point x="511" y="-6"/>
      <point x="577" y="5"/>
      <point x="644" y="20" type="curve"/>
      <point x="647" y="42" type="line"/>
      <point x="573" y="139"/>
      <point x="502" y="239"/>
      <point x="437" y="341" type="curve"/>
      <point x="627" y="647" type="line"/>
    </contour>
    <contour>
      <point x="60" y="647" type="line"/>
      <point x="70" y="190" type="line"/>
      <point x="60" y="0" type="line"/>
      <point x="261" y="0" type="line"/>
      <point x="253" y="210" type="line"/>
      <point x="264" y="647" type="line"/>
    </contour>
    <contour>
      <point x="314" y="0" type="move" name="bottom"/>
    </contour>
    <contour>
      <point x="314" y="647" type="move" name="top"/>
    </contour>
  </outline>
</glyph>
<glyph name="P" format="1">
  <advance width="593"/>
  <unicode hex="0050"/>
  <outline>
    <contour>
      <point x="60" y="647" type="line"/>
      <point x="178" y="500" type="line"/>
      <point x="296" y="509" type="line"/>
      <point x="356" y="506"/>
      <point x="383" y="481"/>
      <point x="383" y="422" type="curve" smooth="yes"/>
      <point x="383" y="372"/>
      <point x="367" y="343"/>
      <point x="331" y="323" type="curve"/>
      <point x="131" y="334" type="line"/>
      <point x="131" y="183" type="line"/>
      <point x="303" y="183" type="line"/>
      <point x="477" y="183"/>
      <point x="593" y="287"/>
      <point x="593" y="442" type="curve" smooth="yes"/>
      <point x="593" y="574"/>
      <point x="512" y="648"/>
      <point x="367" y="648" type="curve"/>
    </contour>
    <contour>
      <point x="60" y="647" type="line"/>
      <point x="70" y="190" type="line"/>
      <point x="60" y="0" type="line"/>
      <point x="261" y="0" type="line"/>
      <point x="253" y="210" type="line"/>
      <point x="264" y="647" type="line"/>
    </contour>
  </outline>
</glyph>
<glyph name="S" format="1">
  <advance width="528"/>
  <unicode hex="0053"/>
  <outline>
    <contour>
      <point x="146" y="659"/>
      <point x="37" y="564"/>
      <point x="37" y="437" type="curve" smooth="yes"/>
      <point x="37" y="241"/>
      <point x="306" y="249"/>
      <point x="306" y="169" type="curve" smooth="yes"/>
      <point x="306" y="153"/>
      <point x="294" y="136"/>
      <point x="253" y="136" type="curve" smooth="yes"/>
      <point x="210" y="136"/>
      <point x="132" y="162"/>
      <point x="67" y="212" type="curve"/>
      <point x="47" y="200" type="line"/>
      <point x="18" y="26" type="line"/>
      <point x="92" y="1"/>
      <point x="164" y="-12"/>
      <point x="232" y="-12" type="curve" smooth="yes"/>
      <point x="400" y="-12"/>
      <point x="505" y="85"/>
      <point x="505" y="206" type="curve" smooth="yes"/>
      <point x="505" y="398"/>
      <point x="234" y="397"/>
      <point x="234" y="472" type="curve" smooth="yes"/>
      <point x="234" y="491"/>
      <point x="252" y="505"/>
      <point x="284" y="505" type="curve" smooth="yes"/>
      <point x="317" y="505"/>
      <point x="376" y="484"/>
      <point x="433" y="449" type="curve"/>
      <point x="461" y="461" type="line"/>
      <point x="493" y="624" type="line"/>
      <point x="424" y="650"/>
      <point x="358" y="659"/>
      <point x="305" y="659" type="curve" smooth="yes"/>
    </contour>
    <contour>
      <point x="255" y="0" type="move" name="bottom"/>
    </contour>
    <contour>
      <point x="275" y="647" type="move" name="top"/>
    </contour>
  </outline>
</glyph>
<glyph name="underscore" format="1">
  <advance width="438"/>
  <unicode hex="005F"/>
  <outline>
    <contour>
      <point x="-6" y="-91" type="line"/>
      <point x="-15" y="-198" type="line"/>
      <point x="-3" y="-211" type="line"/>
      <point x="444" y="-211" type="line"/>
      <point x="453" y="-104" type="line"/>
      <point x="441" y="-91" type="line"/>
    </contour>
  </outline>
</glyph>
<glyph name="a" format="1">
  <advance width="549"/>
  <unicode hex="0061"/>
  <outline>
    <contour>
      <point x="166" y="513" type="line"/>
      <point x="7" y="0" type="line"/>
      <point x="188" y="0" type="line"/>
      <point x="204" y="105" type="line"/>
      <point x="269" y="349" type="line"/>
      <point x="280" y="349" type="line"/>
      <point x="331" y="94" type="line"/>
      <point x="346" y="0" type="line"/>
      <point x="534" y="0" type="line"/>
      <point x="390" y="513" type="line"/>
    </contour>
    <contour>
      <point x="270" y="205" type="line"/>
      <point x="170" y="208" type="line"/>
      <point x="171" y="69" type="line"/>
      <point x="259" y="73" type="line"/>
      <point x="351" y="71" type="line"/>
      <point x="351" y="207" type="line"/>
    </contour>
    <contour>
      <point x="523" y="8" type="move" name="ogonek"/>
    </contour>
    <contour>
      <point x="282" y="513" type="move" name="top"/>
    </contour>
  </outline>
</glyph>
<glyph name="d" format="1">
  <advance width="575"/>
  <unicode hex="0064"/>
  <outline>
    <contour>
      <point x="53" y="513" type="line"/>
      <point x="220" y="367" type="line"/>
      <point x="250" y="371"/>
      <point x="271" y="372"/>
      <point x="291" y="372" type="curve" smooth="yes"/>
      <point x="346" y="372"/>
      <point x="363" y="341"/>
      <point x="363" y="232" type="curve" smooth="yes"/>
      <point x="363" y="151"/>
      <point x="337" y="129"/>
      <point x="298" y="129" type="curve" smooth="yes"/>
      <point x="277" y="129"/>
      <point x="240" y="135"/>
      <point x="214" y="140" type="curve"/>
      <point x="53" y="0" type="line"/>
      <point x="122" y="-4"/>
      <point x="205" y="-8"/>
      <point x="263" y="-8" type="curve" smooth="yes"/>
      <point x="452" y="-8"/>
      <point x="557" y="94"/>
      <point x="557" y="278" type="curve" smooth="yes"/>
      <point x="557" y="431"/>
      <point x="468" y="516"/>
      <point x="307" y="516" type="curve"/>
    </contour>
    <contour>
      <point x="53" y="513" type="line"/>
      <point x="62" y="149" type="line"/>
      <point x="53" y="0" type="line"/>
      <point x="239" y="0" type="line"/>
      <point x="231" y="168" type="line"/>
      <point x="242" y="513" type="line"/>
    </contour>
    <contour>
      <point x="276" y="257" type="move" name="center"/>
    </contour>
    <contour>
      <point x="273" y="513" type="move" name="top"/>
    </contour>
  </outline>
</glyph>
<glyph name="h" format="1">
  <advance width="614"/>
  <unicode hex="0068"/>
  <outline>
    <contour>
      <point x="373" y="513" type="line"/>
      <point x="382" y="149" type="line"/>
      <point x="373" y="0" type="line"/>
      <point x="559" y="0" type="line"/>
      <point x="552" y="168" type="line"/>
      <point x="562" y="513" type="line"/>
    </contour>
    <contour>
      <point x="53" y="513" type="line"/>
      <point x="62" y="149" type="line"/>
      <point x="53" y="0" type="line"/>
      <point x="239" y="0" type="line"/>
      <point x="231" y="168" type="line"/>
      <point x="242" y="513" type="line"/>
    </contour>
    <contour>
      <point x="213" y="177" type="line"/>
      <point x="301" y="180" type="line"/>
      <point x="393" y="178" type="line"/>
      <point x="393" y="328" type="line"/>
      <point x="311" y="326" type="line"/>
      <point x="213" y="329" type="line"/>
    </contour>
    <contour>
      <point x="296" y="257" type="move" name="center"/>
    </contour>
    <contour>
      <point x="310" y="513" type="move" name="top"/>
    </contour>
  </outline>
</glyph>
<glyph name="n" format="1">
  <advance width="614"/>
  <unicode hex="006E"/>
  <outline>
    <contour>
      <point x="392" y="506" type="line"/>
      <point x="398" y="277" type="line"/>
      <point x="387" y="277" type="line"/>
      <point x="255" y="513" type="line"/>
      <point x="53" y="513" type="line"/>
      <point x="62" y="150" type="line"/>
      <point x="53" y="0" type="line"/>
      <point x="221" y="0" type="line"/>
      <point x="214" y="190" type="line"/>
      <point x="215" y="236" type="line"/>
      <point x="225" y="236" type="line"/>
      <point x="357" y="0" type="line"/>
      <point x="559" y="0" type="line"/>
      <point x="552" y="172" type="line"/>
      <point x="562" y="516" type="line"/>
    </contour>
    <contour>
      <point x="306" y="0" type="move" name="bottom"/>
    </contour>
    <contour>
      <point x="306" y="513" type="move" name="top"/>
    </contour>
  </outline>
</glyph>
<glyph name="o" format="1">
  <advance width="565"/>
  <unicode hex="006F"/>
  <outline>
    <contour>
      <point x="119" y="523"/>
      <point x="18" y="422"/>
      <point x="18" y="246" type="curve" smooth="yes"/>
      <point x="18" y="83"/>
      <point x="109" y="-11"/>
      <point x="269" y="-11" type="curve" smooth="yes"/>
      <point x="445" y="-11"/>
      <point x="546" y="92"/>
      <point x="546" y="270" type="curve" smooth="yes"/>
      <point x="546" y="431"/>
      <point x="455" y="523"/>
      <point x="295" y="523" type="curve" smooth="yes"/>
    </contour>
    <contour>
      <point x="340" y="376"/>
      <point x="352" y="353"/>
      <point x="352" y="230" type="curve" smooth="yes"/>
      <point x="352" y="140"/>
      <point x="341" y="126"/>
      <point x="286" y="126" type="curve" smooth="yes"/>
      <point x="225" y="126"/>
      <point x="212" y="148"/>
      <point x="212" y="271" type="curve" smooth="yes"/>
      <point x="212" y="361"/>
      <point x="224" y="376"/>
      <point x="278" y="376" type="curve" smooth="yes"/>
    </contour>
    <contour>
      <point x="284" y="513" type="move" name="top"/>
    </contour>
  </outline>
</glyph>
<glyph name="p" format="1">
  <advance width="526"/>
  <unicode hex="0070"/>
  <outline>
    <contour>
      <point x="53" y="513" type="line"/>
      <point x="163" y="377" type="line"/>
      <point x="260" y="386" type="line"/>
      <point x="306" y="383"/>
      <point x="326" y="368"/>
      <point x="326" y="328" type="curve" smooth="yes"/>
      <point x="326" y="297"/>
      <point x="317" y="281"/>
      <point x="293" y="263" type="curve"/>
      <point x="118" y="274" type="line"/>
      <point x="118" y="135" type="line"/>
      <point x="270" y="135" type="line"/>
      <point x="419" y="135"/>
      <point x="521" y="221"/>
      <point x="521" y="346" type="curve" smooth="yes"/>
      <point x="521" y="453"/>
      <point x="451" y="513"/>
      <point x="327" y="513" type="curve"/>
    </contour>
    <contour>
      <point x="53" y="513" type="line"/>
      <point x="62" y="149" type="line"/>
      <point x="53" y="0" type="line"/>
      <point x="239" y="0" type="line"/>
      <point x="231" y="168" type="line"/>
      <point x="242" y="513" type="line"/>
    </contour>
  </outline>
</glyph>
<glyph name="t" format="1">
  <advance width="457"/>
  <unicode hex="0074"/>
  <outline>
    <contour>
      <point x="139" y="495" type="line"/>
      <point x="145" y="149" type="line"/>
      <point x="136" y="0" type="line"/>
      <point x="321" y="0" type="line"/>
      <point x="314" y="168" type="line"/>
      <point x="321" y="495" type="line"/>
    </contour>
    <contour>
      <point x="22" y="513" type="line"/>
      <point x="12" y="378" type="line"/>
      <point x="23" y="365" type="line"/>
      <point x="137" y="371" type="line"/>
      <point x="321" y="371" type="line"/>
      <point x="434" y="365" type="line"/>
      <point x="444" y="500" type="line"/>
      <point x="434" y="513" type="line"/>
    </contour>
    <contour>
      <point x="229" y="0" type="move" name="bottom"/>
    </contour>
    <contour>
      <point x="216" y="257" type="move" name="center"/>
    </contour>
    <contour>
      <point x="216" y="513" type="move" name="top"/>
    </contour>
  </outline>
</glyph>
<glyph name="w" format="1">
  <advance width="780"/>
  <unicode hex="0077"/>
  <outline>
    <contour>
      <point x="605" y="513" type="line"/>
      <point x="589" y="413" type="line"/>
      <point x="540" y="188" type="line"/>
      <point x="529" y="188" type="line"/>
      <point x="488" y="404" type="line"/>
      <point x="476" y="513" type="line"/>
      <point x="285" y="513" type="line"/>
      <point x="310" y="397" type="line"/>
      <point x="259" y="188" type="line"/>
      <point x="248" y="188" type="line"/>
      <point x="212" y="424" type="line"/>
      <point x="204" y="513" type="line"/>
      <point x="21" y="513" type="line"/>
      <point x="139" y="0" type="line"/>
      <point x="340" y="0" type="line"/>
      <point x="374" y="150" type="line"/>
      <point x="385" y="150" type="line"/>
      <point x="424" y="0" type="line"/>
      <point x="625" y="0" type="line"/>
      <point x="778" y="513" type="line"/>
    </contour>
    <contour>
      <point x="375" y="513" type="move" name="top"/>
    </contour>
  </outline>
</glyph>
<glyph name="x" format="1">
  <advance width="555"/>
  <unicode hex="0078"/>
  <outline>
    <contour>
      <point x="358" y="513" type="line"/>
      <point x="332" y="453" type="line"/>
      <point x="288" y="384" type="line"/>
      <point x="251" y="442" type="line"/>
      <point x="221" y="513" type="line"/>
      <point x="-1" y="513" type="line"/>
      <point x="164" y="243" type="line"/>
      <point x="6" y="0" type="line"/>
      <point x="193" y="0" type="line"/>
      <point x="221" y="59" type="line"/>
      <point x="272" y="126" type="line"/>
      <point x="308" y="69" type="line"/>
      <point x="337" y="0" type="line"/>
      <point x="558" y="0" type="line"/>
      <point x="398" y="272" type="line"/>
      <point x="550" y="513" type="line"/>
    </contour>
  </outline>
</glyph>
<glyph name="bar" format="1">
  <advance width="300"/>
  <unicode hex="007C"/>
  <outline>
    <contour>
      <point x="77" y="799" type="line"/>
      <point x="76" y="279" type="line"/>
      <point x="75" y="-240" type="line"/>
      <point x="90" y="-256" type="line"/>
      <point x="222" y="-245" type="line"/>
      <point x="221" y="294" type="line"/>
      <point x="226" y="797" type="line"/>
      <point x="212" y="810" type="line"/>
    </contour>
  </outline>
</glyph>
<glyph name="yen" format="1">
  <advance width="579"/>
  <unicode hex="00A5"/>
  <outline>
    <contour>
      <point x="40" y="185" type="line"/>
      <point x="35" y="108" type="line"/>
      <point x="41" y="99" type="line"/>
      <point x="549" y="99" type="line"/>
      <point x="555" y="178" type="line"/>
      <point x="547" y="185" type="line"/>
    </contour>
    <contour>
      <point x="40" y="326" type="line"/>
      <point x="35" y="249" type="line"/>
      <point x="41" y="240" type="line"/>
      <point x="226" y="240" type="line"/>
      <point x="224" y="326" type="line"/>
    </contour>
    <contour>
      <point x="357" y="326" type="line"/>
      <point x="355" y="240" type="line"/>
      <point x="549" y="240" type="line"/>
      <point x="555" y="319" type="line"/>
      <point x="547" y="326" type="line"/>
    </contour>
    <contour>
      <point x="398" y="511" type="line"/>
      <point x="378" y="460" type="line"/>
      <point x="297" y="322" type="line"/>
      <point x="287" y="322" type="line"/>
      <point x="216" y="466" type="line"/>
      <point x="201" y="511" type="line"/>
      <point x="23" y="511" type="line"/>
      <point x="255" y="54" type="line"/>
      <point x="310" y="54" type="line"/>
      <point x="572" y="511" type="line"/>
    </contour>
    <contour>
      <point x="206" y="224" type="line"/>
      <point x="209" y="133" type="line"/>
      <point x="201" y="0" type="line"/>
      <point x="371" y="0" type="line"/>
      <point x="364" y="133" type="line"/>
      <point x="369" y="224" type="line"/>
    </contour>
    <contour>
      <point x="299" y="513" type="move" name="top"/>
    </contour>
  </outline>
</glyph>
<glyph name="registered" format="1">
  <advance width="454"/>
  <unicode hex="00AE"/>
  <outline>
    <contour>
      <point x="112" y="703"/>
      <point x="35" y="626"/>
      <point x="35" y="511" type="curve" smooth="yes"/>
      <point x="35" y="396"/>
      <point x="112" y="319"/>
      <point x="227" y="319" type="curve" smooth="yes"/>
      <point x="342" y="319"/>
      <point x="419" y="396"/>
      <point x="419" y="511" type="curve" smooth="yes"/>
      <point x="419" y="626"/>
      <point x="342" y="703"/>
      <point x="227" y="703" type="curve" smooth="yes"/>
    </contour>
    <contour>
      <point x="146" y="615" type="line"/>
      <point x="149" y="475" type="line"/>
      <point x="146" y="419" type="line"/>
      <point x="210" y="419" type="line"/>
      <point x="207" y="483" type="line"/>
      <point x="211" y="615" type="line"/>
    </contour>
    <contour>
      <point x="219" y="506" type="line"/>
      <point x="231" y="477"/>
      <point x="245" y="448"/>
      <point x="261" y="420" type="curve"/>
      <point x="269" y="415" type="line"/>
      <point x="291" y="417"/>
      <point x="312" y="419"/>
      <point x="331" y="426" type="curve"/>
      <point x="332" y="433" type="line"/>
      <point x="312" y="457"/>
      <point x="293" y="482"/>
      <point x="276" y="507" type="curve"/>
    </contour>
    <contour>
      <point x="317" y="661"/>
      <point x="377" y="601"/>
      <point x="377" y="511" type="curve" smooth="yes"/>
      <point x="377" y="421"/>
      <point x="317" y="361"/>
      <point x="227" y="361" type="curve" smooth="yes"/>
      <point x="137" y="361"/>
      <point x="77" y="421"/>
      <point x="77" y="511" type="curve" smooth="yes"/>
      <point x="77" y="601"/>
      <point x="137" y="661"/>
      <point x="227" y="661" type="curve" smooth="yes"/>
    </contour>
    <contour>
      <point x="146" y="615" type="line"/>
      <point x="183" y="567" type="line"/>
      <point x="223" y="570" type="line"/>
      <point x="245" y="569"/>
      <point x="253" y="563"/>
      <point x="253" y="548" type="curve" smooth="yes"/>
      <point x="253" y="533"/>
      <point x="247" y="526"/>
      <point x="235" y="519" type="curve"/>
      <point x="169" y="524" type="line"/>
      <point x="169" y="476" type="line"/>
      <point x="237" y="476" type="line"/>
      <point x="287" y="486"/>
      <point x="320" y="517"/>
      <point x="320" y="553" type="curve" smooth="yes"/>
      <point x="320" y="593"/>
      <point x="293" y="616"/>
      <point x="246" y="616" type="curve"/>
    </contour>
  </outline>
</glyph>
<glyph name="degree" format="1">
  <advance width="292"/>
  <unicode hex="00B0"/>
  <outline>
    <contour>
      <point x="71" y="659"/>
      <point x="11" y="599"/>
      <point x="11" y="524" type="curve" smooth="yes"/>
      <point x="11" y="449"/>
      <point x="71" y="389"/>
      <point x="146" y="389" type="curve" smooth="yes"/>
      <point x="221" y="389"/>
      <point x="281" y="449"/>
      <point x="281" y="524" type="curve" smooth="yes"/>
      <point x="281" y="599"/>
      <point x="221" y="659"/>
      <point x="146" y="659" type="curve" smooth="yes"/>
    </contour>
    <contour>
      <point x="179" y="580"/>
      <point x="202" y="557"/>
      <point x="202" y="524" type="curve" smooth="yes"/>
      <point x="202" y="490"/>
      <point x="179" y="468"/>
      <point x="146" y="468" type="curve" smooth="yes"/>
      <point x="112" y="468"/>
      <point x="90" y="490"/>
      <point x="90" y="524" type="curve" smooth="yes"/>
      <point x="90" y="557"/>
      <point x="112" y="580"/>
      <point x="146" y="580" type="curve" smooth="yes"/>
    </contour>
  </outline>
</glyph>
<glyph name="Oslash" format="1">
  <advance width="653"/>
  <unicode hex="00D8"/>
  <outline>
    <contour>
      <point x="156" y="132" type="line"/>
      <point x="55" y="-75" type="line"/>
      <point x="63" y="-92" type="line"/>
      <point x="187" y="-139" type="line"/>
      <point x="296" y="85" type="line"/>
    </contour>
    <contour>
      <point x="509" y="517" type="line"/>
      <point x="607" y="714" type="line"/>
      <point x="595" y="733" type="line"/>
      <point x="475" y="779" type="line"/>
      <point x="381" y="589" type="line"/>
    </contour>
    <component base="O"/>
    <contour>
      <point x="327" y="650" type="move" name="top"/>
    </contour>
  </outline>
</glyph>
<glyph name="ae" format="1">
  <advance width="724"/>
  <unicode hex="00E6"/>
  <outline>
    <contour>
      <point x="227" y="512" type="line"/>
      <point x="-11" y="0" type="line"/>
      <point x="154" y="0" type="line"/>
      <point x="182" y="98" type="line"/>
      <point x="301" y="362" type="line"/>
      <point x="312" y="362" type="line"/>
      <point x="338" y="88" type="line"/>
      <point x="342" y="0" type="line"/>
      <point x="712" y="0" type="line"/>
      <point x="723" y="122" type="line"/>
      <point x="713" y="134" type="line"/>
      <point x="572" y="129" type="line"/>
      <point x="494" y="129" type="line"/>
      <point x="473" y="383" type="line"/>
      <point x="537" y="383" type="line"/>
      <point x="666" y="377" type="line"/>
      <point x="677" y="499" type="line"/>
      <point x="667" y="512" type="line"/>
    </contour>
    <contour>
      <point x="449" y="293" type="line"/>
      <point x="143" y="203" type="line"/>
      <point x="105" y="64" type="line"/>
      <point x="467" y="171" type="line"/>
      <point x="652" y="221" type="line"/>
      <point x="637" y="336" type="line"/>
      <point x="626" y="346" type="line"/>
    </contour>
    <contour>
      <point x="425" y="511" type="move" name="top"/>
    </contour>
  </outline>
</glyph>
<glyph name="eth" format="1">
  <advance width="612"/>
  <unicode hex="00F0"/>
  <outline>
    <contour>
      <point x="27" y="308" type="line"/>
      <point x="20" y="208" type="line"/>
      <point x="29" y="195" type="line"/>
      <point x="349" y="195" type="line"/>
      <point x="357" y="295" type="line"/>
      <point x="348" y="308" type="line"/>
    </contour>
    <component base="d" xOffset="32"/>
  </outline>
</glyph>
<glyph name="oslash" format="1">
  <advance width="565"/>
  <unicode hex="00F8"/>
  <outline>
    <contour>
      <point x="137" y="130" type="line"/>
      <point x="24" y="-56" type="line"/>
      <point x="28" y="-72" type="line"/>
      <point x="138" y="-128" type="line"/>
      <point x="252" y="58" type="line"/>
    </contour>
    <contour>
      <point x="441" y="369" type="line"/>
      <point x="547" y="542" type="line"/>
      <point x="538" y="559" type="line"/>
      <point x="433" y="614" type="line"/>
      <point x="328" y="443" type="line"/>
    </contour>
    <component base="o"/>
    <contour>
      <point x="276" y="515" type="move" name="top"/>
    </contour>
  </outline>
</glyph>
<glyph name="thorn" format="1">
  <advance width="533"/>
  <unicode hex="00FE"/>
  <outline>
    <contour>
      <point x="53" y="446" type="line"/>
      <point x="165" y="309" type="line"/>
      <point x="264" y="319" type="line"/>
      <point x="313" y="316"/>
      <point x="332" y="305"/>
      <point x="332" y="263" type="curve" smooth="yes"/>
      <point x="332" y="230"/>
      <point x="319" y="219"/>
      <point x="298" y="204" type="curve"/>
      <point x="119" y="214" type="line"/>
      <point x="119" y="71" type="line"/>
      <point x="274" y="75" type="line"/>
      <point x="438" y="75"/>
      <point x="529" y="150"/>
      <point x="529" y="278" type="curve" smooth="yes"/>
      <point x="529" y="393"/>
      <point x="459" y="447"/>
      <point x="332" y="447" type="curve"/>
    </contour>
    <contour>
      <point x="53" y="513" type="line"/>
      <point x="62" y="149" type="line"/>
      <point x="53" y="0" type="line"/>
      <point x="241" y="0" type="line"/>
      <point x="233" y="168" type="line"/>
      <point x="244" y="513" type="line"/>
    </contour>
  </outline>
</glyph>
<glyph name="Aogonek" format="1">
  <advance width="627"/>
  <unicode hex="0104"/>
  <outline>
    <contour>
      <point x="463" y="1" type="line"/>
      <point x="430" y="-36"/>
      <point x="418" y="-65"/>
      <point x="418" y="-97" type="curve" smooth="yes"/>
      <point x="418" y="-155"/>
      <point x="457" y="-197"/>
      <point x="522" y="-197" type="curve" smooth="yes"/>
      <point x="559" y="-197"/>
      <point x="591" y="-183"/>
      <point x="633" y="-151" type="curve"/>
      <point x="621" y="-79" type="line"/>
      <point x="611" y="-79" type="line"/>
      <point x="590" y="-92"/>
      <point x="568" y="-99"/>
      <point x="550" y="-99" type="curve" smooth="yes"/>
      <point x="525" y="-99"/>
      <point x="514" y="-85"/>
      <point x="514" y="-67" type="curve" smooth="yes"/>
      <point x="514" y="-52"/>
      <point x="522" y="-31"/>
      <point x="548" y="1" type="curve"/>
    </contour>
    <component base="A"/>
  </outline>
</glyph>
<glyph name="aogonek" format="1">
  <advance width="549"/>
  <unicode hex="0105"/>
  <outline>
    <contour>
      <point x="388" y="1" type="line"/>
      <point x="355" y="-36"/>
      <point x="343" y="-65"/>
      <point x="343" y="-97" type="curve" smooth="yes"/>
      <point x="343" y="-155"/>
      <point x="382" y="-197"/>
      <point x="447" y="-197" type="curve" smooth="yes"/>
      <point x="484" y="-197"/>
      <point x="516" y="-183"/>
      <point x="558" y="-151" type="curve"/>
      <point x="546" y="-79" type="line"/>
      <point x="536" y="-79" type="line"/>
      <point x="515" y="-92"/>
      <point x="493" y="-99"/>
      <point x="475" y="-99" type="curve" smooth="yes"/>
      <point x="450" y="-99"/>
      <point x="439" y="-85"/>
      <point x="439" y="-67" type="curve" smooth="yes"/>
      <point x="439" y="-52"/>
      <point x="447" y="-31"/>
      <point x="473" y="1" type="curve"/>
    </contour>
    <component base="a"/>
  </outline>
</glyph>
<glyph name="hbar" format="1">
  <advance width="642"/>
  <unicode hex="0127"/>
  <outline>
    <contour>
      <point x="16" y="459" type="line"/>
      <point x="11" y="375" type="line"/>
      <point x="18" y="366" type="line"/>
      <point x="627" y="366" type="line"/>
      <point x="632" y="450" type="line"/>
      <point x="625" y="459" type="line"/>
    </contour>
    <component base="h" xOffset="6"/>
  </outline>
</glyph>
<glyph name="kgreenlandic" format="1">
  <advance width="556"/>
  <unicode hex="0138"/>
  <outline>
    <component base="k"/>
    <contour>
      <point x="263" y="0" type="move" name="bottom"/>
    </contour>
    <contour>
      <point x="265" y="513" type="move" name="top"/>
    </contour>
  </outline>
</glyph>
<glyph name="Lcaron" format="1">
  <advance width="521"/>
  <unicode hex="013D"/>
  <outline>
    <contour>
      <point x="216" y="197" type="move"/>
    </contour>
    <component base="L"/>
    <component base="caron.alt" xOffset="230" yOffset="-156"/>
  </outline>
</glyph>
<glyph name="Lslash" format="1">
  <advance width="472"/>
  <unicode hex="0141"/>
  <outline>
    <contour>
      <point x="-14" y="301" type="line"/>
      <point x="21" y="186" type="line"/>
      <point x="38" y="177" type="line"/>
      <point x="394" y="357" type="line"/>
      <point x="358" y="471" type="line"/>
      <point x="341" y="480" type="line"/>
    </contour>
    <component base="L" xOffset="20"/>
  </outline>
</glyph>
<glyph name="lslash" format="1">
  <advance width="422"/>
  <unicode hex="0142"/>
  <outline>
    <contour>
      <point x="-9" y="256" type="line"/>
      <point x="19" y="156" type="line"/>
      <point x="34" y="147" type="line"/>
      <point x="348" y="278" type="line"/>
      <point x="319" y="377" type="line"/>
      <point x="305" y="386" type="line"/>
    </contour>
    <component base="l" xOffset="13"/>
  </outline>
</glyph>
<glyph name="oe" format="1">
  <advance width="763"/>
  <unicode hex="0153"/>
  <outline>
    <contour>
      <point x="123" y="522"/>
      <point x="18" y="422"/>
      <point x="18" y="247" type="curve" smooth="yes"/>
      <point x="18" y="83"/>
      <point x="111" y="-9"/>
      <point x="275" y="-9" type="curve" smooth="yes"/>
      <point x="348" y="-9"/>
      <point x="418" y="3"/>
      <point x="472" y="0" type="curve"/>
      <point x="738" y="0" type="line"/>
      <point x="749" y="135" type="line"/>
      <point x="739" y="147" type="line"/>
      <point x="599" y="142" type="line"/>
      <point x="522" y="142" type="line"/>
      <point x="520" y="169" type="line"/>
      <point x="520" y="185" type="line"/>
      <point x="594" y="185" type="line"/>
      <point x="691" y="182" type="line"/>
      <point x="702" y="317" type="line"/>
      <point x="692" y="330" type="line"/>
      <point x="606" y="327" type="line"/>
      <point x="525" y="327" type="line"/>
      <point x="527" y="371" type="line"/>
      <point x="609" y="371" type="line"/>
      <point x="744" y="365" type="line"/>
      <point x="756" y="500" type="line"/>
      <point x="746" y="513" type="line"/>
      <point x="472" y="513" type="line" smooth="yes"/>
      <point x="422" y="513"/>
      <point x="367" y="522"/>
      <point x="298" y="522" type="curve" smooth="yes"/>
    </contour>
    <contour>
      <point x="314" y="375"/>
      <point x="329" y="371"/>
      <point x="337" y="361" type="curve" smooth="yes"/>
      <point x="343" y="354"/>
      <point x="345" y="341"/>
      <point x="346" y="320" type="curve" smooth="yes"/>
      <point x="350" y="186" type="line" smooth="yes"/>
      <point x="351" y="162"/>
      <point x="348" y="147"/>
      <point x="342" y="139" type="curve" smooth="yes"/>
      <point x="335" y="130"/>
      <point x="319" y="127"/>
      <point x="289" y="127" type="curve" smooth="yes"/>
      <point x="227" y="127"/>
      <point x="212" y="157"/>
      <point x="212" y="263" type="curve" smooth="yes"/>
      <point x="212" y="354"/>
      <point x="222" y="375"/>
      <point x="282" y="375" type="curve" smooth="yes"/>
    </contour>
    <contour>
      <point x="509" y="513" type="move" name="top"/>
    </contour>
  </outline>
</glyph>
<glyph name="Ohorn" format="1">
  <advance width="661"/>
  <unicode hex="01A0"/>
  <outline>
    <contour>
      <point x="579" y="789"/>
      <point x="544" y="770"/>
      <point x="519" y="752" type="curve"/>
      <point x="516" y="738" type="line"/>
      <point x="534" y="722"/>
      <point x="545" y="699"/>
      <point x="545" y="676" type="curve" smooth="yes"/>
      <point x="545" y="648"/>
      <point x="530" y="631"/>
      <point x="499" y="631" type="curve" smooth="yes"/>
      <point x="459" y="631"/>
      <point x="407" y="659"/>
      <point x="322" y="659" type="curve" smooth="yes"/>
      <point x="142" y="659"/>
      <point x="17" y="533"/>
      <point x="17" y="311" type="curve" smooth="yes"/>
      <point x="17" y="107"/>
      <point x="123" y="-12"/>
      <point x="315" y="-12" type="curve" smooth="yes"/>
      <point x="518" y="-12"/>
      <point x="636" y="120"/>
      <point x="636" y="336" type="curve" smooth="yes"/>
      <point x="636" y="422"/>
      <point x="617" y="491"/>
      <point x="579" y="546" type="curve"/>
      <point x="645" y="562"/>
      <point x="696" y="614"/>
      <point x="696" y="686" type="curve" smooth="yes"/>
      <point x="696" y="746"/>
      <point x="661" y="789"/>
      <point x="612" y="789" type="curve" smooth="yes"/>
    </contour>
    <contour>
      <point x="403" y="499"/>
      <point x="426" y="458"/>
      <point x="426" y="308" type="curve" smooth="yes"/>
      <point x="426" y="168"/>
      <point x="406" y="136"/>
      <point x="333" y="136" type="curve" smooth="yes"/>
      <point x="250" y="136"/>
      <point x="227" y="178"/>
      <point x="227" y="328" type="curve" smooth="yes"/>
      <point x="227" y="465"/>
      <point x="246" y="499"/>
      <point x="321" y="499" type="curve" smooth="yes"/>
    </contour>
    <contour>
      <point x="327" y="647" type="move" name="top"/>
    </contour>
  </outline>
</glyph>
<glyph name="ohorn" format="1">
  <advance width="572"/>
  <unicode hex="01A1"/>
  <outline>
    <contour>
      <point x="437" y="582" type="line"/>
      <point x="452" y="571"/>
      <point x="461" y="553"/>
      <point x="461" y="535" type="curve" smooth="yes"/>
      <point x="461" y="515"/>
      <point x="451" y="502"/>
      <point x="426" y="502" type="curve" smooth="yes"/>
      <point x="394" y="502"/>
      <point x="347" y="523"/>
      <point x="277" y="523" type="curve" smooth="yes"/>
      <point x="126" y="523"/>
      <point x="18" y="422"/>
      <point x="18" y="245" type="curve" smooth="yes"/>
      <point x="18" y="84"/>
      <point x="108" y="-11"/>
      <point x="272" y="-11" type="curve" smooth="yes"/>
      <point x="445" y="-11"/>
      <point x="546" y="95"/>
      <point x="546" y="267" type="curve" smooth="yes"/>
      <point x="546" y="330"/>
      <point x="532" y="382"/>
      <point x="502" y="425" type="curve"/>
      <point x="558" y="441"/>
      <point x="601" y="485"/>
      <point x="601" y="544" type="curve" smooth="yes"/>
      <point x="601" y="593"/>
      <point x="570" y="629"/>
      <point x="526" y="629" type="curve" smooth="yes"/>
      <point x="495" y="629"/>
      <point x="463" y="611"/>
      <point x="440" y="595" type="curve"/>
    </contour>
    <contour>
      <point x="226" y="126"/>
      <point x="212" y="149"/>
      <point x="212" y="261" type="curve" smooth="yes"/>
      <point x="212" y="360"/>
      <point x="222" y="376"/>
      <point x="277" y="376" type="curve" smooth="yes"/>
      <point x="339" y="376"/>
      <point x="352" y="353"/>
      <point x="352" y="241" type="curve" smooth="yes"/>
      <point x="352" y="139"/>
      <point x="342" y="126"/>
      <point x="289" y="126" type="curve" smooth="yes"/>
    </contour>
    <contour>
      <point x="271" y="513" type="move" name="top"/>
    </contour>
  </outline>
</glyph>
<glyph name="Uhorn" format="1">
  <advance width="663"/>
  <unicode hex="01AF"/>
  <outline>
    <contour>
      <point x="590" y="805"/>
      <point x="557" y="788"/>
      <point x="529" y="768" type="curve"/>
      <point x="526" y="754" type="line"/>
      <point x="544" y="739"/>
      <point x="555" y="719"/>
      <point x="555" y="695" type="curve" smooth="yes"/>
      <point x="555" y="661"/>
      <point x="539" y="647"/>
      <point x="498" y="647" type="curve"/>
      <point x="528" y="556" type="line"/>
      <point x="634" y="571"/>
      <point x="706" y="636"/>
      <point x="706" y="713" type="curve" smooth="yes"/>
      <point x="706" y="767"/>
      <point x="671" y="805"/>
      <point x="623" y="805" type="curve" smooth="yes"/>
    </contour>
    <component base="U"/>
    <contour>
      <point x="327" y="647" type="move" name="top"/>
    </contour>
  </outline>
</glyph>
<glyph name="Aringacute" format="1">
  <advance width="627"/>
  <unicode hex="01FA"/>
  <outline>
    <contour>
      <point x="216" y="647" type="line"/>
      <point x="2" y="0" type="line"/>
      <point x="198" y="0" type="line"/>
      <point x="217" y="115" type="line"/>
      <point x="309" y="450" type="line"/>
      <point x="321" y="450" type="line"/>
      <point x="396" y="103" type="line"/>
      <point x="414" y="0" type="line"/>
      <point x="617" y="0" type="line"/>
      <point x="423" y="647" type="line"/>
    </contour>
    <contour>
      <point x="309" y="246" type="line"/>
      <point x="187" y="248" type="line"/>
      <point x="187" y="103" type="line"/>
      <point x="297" y="108" type="line"/>
      <point x="412" y="106" type="line"/>
      <point x="412" y="248" type="line"/>
    </contour>
    <contour>
      <point x="274" y="288" type="move"/>
    </contour>
    <component base="ringacute" xOffset="125" yOffset="54"/>
  </outline>
</glyph>
<glyph name="Delta" format="1">
  <advance width="627"/>
  <unicode hex="0394"/>
  <outline>
    <contour>
      <point x="198" y="647" type="line"/>
      <point x="2" y="0" type="line"/>
      <point x="617" y="0" type="line"/>
      <point x="440" y="647" type="line"/>
    </contour>
    <contour>
      <point x="388" y="145" type="line"/>
      <point x="224" y="145" type="line"/>
      <point x="309" y="468" type="line"/>
      <point x="321" y="468" type="line"/>
    </contour>
  </outline>
</glyph>
<glyph name="fraction" format="1">
  <advance width="137"/>
  <unicode hex="2044"/>
  <outline>
    <contour>
      <point x="-223" y="-27" type="line"/>
      <point x="-217" y="-44" type="line"/>
      <point x="-135" y="-94" type="line"/>
      <point x="327" y="623" type="line"/>
      <point x="317" y="647" type="line"/>
      <point x="241" y="694" type="line"/>
    </contour>
  </outline>
</glyph>
<glyph name="arrowdown" format="1">
  <advance width="550"/>
  <unicode hex="2193"/>
  <outline>
    <contour>
      <point x="453" y="295" type="line"/>
      <point x="275" y="129" type="line"/>
      <point x="97" y="295" type="line"/>
      <point x="73" y="295" type="line"/>
      <point x="51" y="189" type="line"/>
      <point x="261" y="-12" type="line"/>
      <point x="290" y="-12" type="line"/>
      <point x="499" y="189" type="line"/>
      <point x="477" y="295" type="line"/>
    </contour>
    <contour>
      <point x="208" y="472" type="line"/>
      <point x="219" y="96" type="line"/>
      <point x="331" y="96" type="line"/>
      <point x="342" y="478" type="line"/>
      <point x="222" y="484" type="line"/>
    </contour>
  </outline>
</glyph>
<glyph name="summation" format="1">
  <advance width="547"/>
  <unicode hex="2211"/>
  <outline>
    <contour>
      <point x="375" y="647" type="line"/>
      <point x="123" y="647" type="line"/>
      <point x="27" y="649" type="line"/>
      <point x="27" y="500" type="line"/>
      <point x="216" y="323" type="line"/>
      <point x="27" y="135" type="line"/>
      <point x="27" y="-3" type="line"/>
      <point x="134" y="0" type="line"/>
      <point x="345" y="0" type="line"/>
      <point x="514" y="-2" type="line"/>
      <point x="527" y="140" type="line"/>
      <point x="515" y="155" type="line"/>
      <point x="388" y="146" type="line"/>
      <point x="268" y="146" type="line"/>
      <point x="434" y="310" type="line"/>
      <point x="434" y="338" type="line"/>
      <point x="266" y="501" type="line"/>
      <point x="394" y="501" type="line"/>
      <point x="503" y="494" type="line"/>
      <point x="515" y="635" type="line"/>
      <point x="503" y="649" type="line"/>
    </contour>
  </outline>
</glyph>
<glyph name="radical" format="1">
  <advance width="494"/>
  <unicode hex="221A"/>
  <outline>
    <contour>
      <point x="428" y="710" type="line"/>
      <point x="414" y="698" type="line"/>
      <point x="268" y="165" type="line"/>
      <point x="257" y="165" type="line"/>
      <point x="199" y="465" type="line"/>
      <point x="193" y="472" type="line"/>
      <point x="-32" y="472" type="line"/>
      <point x="-36" y="347" type="line"/>
      <point x="-31" y="340" type="line"/>
      <point x="64" y="340" type="line"/>
      <point x="139" y="0" type="line"/>
      <point x="349" y="0" type="line"/>
      <point x="557" y="710" type="line"/>
    </contour>
  </outline>
</glyph>
<glyph name="C.ss01" format="1">
  <advance width="447"/>
  <outline>
    <contour>
      <point x="-100" y="448" type="line"/>
      <point x="547" y="448" type="line"/>
      <point x="547" y="513" type="line"/>
      <point x="-100" y="513" type="line"/>
    </contour>
    <contour>
      <point x="-100" y="0" type="line"/>
      <point x="547" y="0" type="line"/>
      <point x="547" y="65" type="line"/>
      <point x="-100" y="65" type="line"/>
    </contour>
    <component base="c" xOffset="10" yOffset="12" xScale="0.95" yScale="0.95"/>
  </outline>
</glyph>
<glyph name="I.ss01" format="1">
  <advance width="303"/>
  <outline>
    <contour>
      <point x="-100" y="448" type="line"/>
      <point x="403" y="448" type="line"/>
      <point x="403" y="513" type="line"/>
      <point x="-100" y="513" type="line"/>
    </contour>
    <contour>
      <point x="-100" y="0" type="line"/>
      <point x="403" y="0" type="line"/>
      <point x="403" y="65" type="line"/>
      <point x="-100" y="65" type="line"/>
    </contour>
    <component base="i"/>
  </outline>
</glyph>
<glyph name="L.ss01" format="1">
  <advance width="432"/>
  <outline>
    <contour>
      <point x="51" y="508" type="line"/>
      <point x="60" y="151" type="line"/>
      <point x="51" y="5" type="line"/>
      <point x="378" y="5" type="line"/>
      <point x="389" y="141" type="line"/>
      <point x="379" y="153" type="line"/>
      <point x="227" y="153" type="line"/>
      <point x="226" y="170" type="line"/>
      <point x="237" y="508" type="line"/>
    </contour>
    <contour>
      <point x="-100" y="65" type="line"/>
      <point x="-100" y="0" type="line"/>
      <point x="532" y="0" type="line"/>
      <point x="532" y="65" type="line"/>
    </contour>
    <contour>
      <point x="-100" y="513" type="line"/>
      <point x="-100" y="448" type="line"/>
      <point x="532" y="448" type="line"/>
      <point x="532" y="513" type="line"/>
    </contour>
    <contour>
      <point x="184" y="513" type="move" name="top"/>
    </contour>
    <contour>
      <point x="189" y="0" type="move" name="bottom"/>
    </contour>
  </outline>
</glyph>
<glyph name="breveacute" format="1">
  <advance width="388"/>
  <outline>
    <contour>
      <point x="231" y="877" type="line"/>
      <point x="200" y="827"/>
      <point x="167" y="779"/>
      <point x="134" y="731" type="curve"/>
      <point x="192" y="686" type="line"/>
      <point x="207" y="691" type="line"/>
      <point x="251" y="729"/>
      <point x="294" y="769"/>
      <point x="336" y="810" type="curve"/>
      <point x="333" y="824" type="line"/>
      <point x="244" y="881" type="line"/>
    </contour>
    <component base="breve.cap" yOffset="-20"/>
    <contour>
      <point x="194" y="472" type="move" name="_top"/>
    </contour>
  </outline>
</glyph>
<glyph name="brevehookabove" format="1">
  <advance width="388"/>
  <outline>
    <component base="breve.cap" yOffset="-20"/>
    <component base="hookabove" xOffset="4" yOffset="169"/>
    <contour>
      <point x="194" y="472" type="move" name="_top"/>
    </contour>
  </outline>
</glyph>
<glyph name="brevetilde" format="1">
  <advance width="388"/>
  <outline>
    <component base="breve.cap" xOffset="18" yOffset="18" xScale="0.93" yScale="0.93"/>
    <component base="tilde" xOffset="22" yOffset="235" xScale="0.91" yScale="0.91"/>
    <contour>
      <point x="194" y="472" type="move" name="_top"/>
    </contour>
  </outline>
</glyph>
<glyph name="caron.alt" format="1">
  <advance width="388"/>
  <outline>
    <contour>
      <point x="120" y="749" type="line"/>
      <point x="130" y="511" type="line"/>
      <point x="143" y="501" type="line"/>
      <point x="225" y="514" type="line"/>
      <point x="269" y="746" type="line"/>
      <point x="259" y="757" type="line"/>
    </contour>
    <contour>
      <point x="195" y="472" type="move" name="_top"/>
    </contour>
  </outline>
</glyph>
<glyph name="circle1" format="1">
  <advance width="472"/>
  <outline>
    <contour>
      <point x="105" y="464"/>
      <point x="-2" y="357"/>
      <point x="-2" y="226" type="curve" smooth="yes"/>
      <point x="-2" y="95"/>
      <point x="105" y="-12"/>
      <point x="236" y="-12" type="curve" smooth="yes"/>
      <point x="367" y="-12"/>
      <point x="474" y="95"/>
      <point x="474" y="226" type="curve" smooth="yes"/>
      <point x="474" y="357"/>
      <point x="367" y="464"/>
      <point x="236" y="464" type="curve" smooth="yes"/>
    </contour>
  </outline>
</glyph>
<glyph name="circumflexgrave" format="1">
  <advance width="388"/>
  <outline>
    <contour>
      <point x="204" y="836" type="line"/>
      <point x="199" y="823" type="line"/>
      <point x="309" y="674" type="line"/>
      <point x="320" y="674" type="line"/>
      <point x="384" y="721" type="line"/>
      <point x="314" y="870" type="line"/>
      <point x="302" y="877" type="line"/>
    </contour>
    <component base="circumflex.cap" yOffset="-20"/>
    <contour>
      <point x="194" y="472" type="move" name="_top"/>
    </contour>
  </outline>
</glyph>
<glyph name="circumflexhookabove" format="1">
  <advance width="388"/>
  <outline>
    <component base="circumflex.cap" yOffset="-20"/>
    <component base="hookabove" xOffset="134" yOffset="190" xScale="0.95" yScale="0.95"/>
    <contour>
      <point x="194" y="472" type="move" name="_top"/>
    </contour>
  </outline>
</glyph>
<glyph name="eight.dnom" format="1">
  <advance width="383"/>
  <outline>
    <contour>
      <point x="103" y="401"/>
      <point x="38" y="355"/>
      <point x="38" y="279" type="curve" smooth="yes"/>
      <point x="38" y="232"/>
      <point x="65" y="204"/>
      <point x="101" y="186" type="curve"/>
      <point x="101" y="181" type="line"/>
      <point x="51" y="162"/>
      <point x="28" y="136"/>
      <point x="28" y="94" type="curve" smooth="yes"/>
      <point x="28" y="36"/>
      <point x="79" y="-8"/>
      <point x="180" y="-8" type="curve" smooth="yes"/>
      <point x="284" y="-8"/>
      <point x="353" y="38"/>
      <point x="353" y="118" type="curve" smooth="yes"/>
      <point x="353" y="163"/>
      <point x="325" y="189"/>
      <point x="288" y="207" type="curve"/>
      <point x="288" y="213" type="line"/>
      <point x="326" y="237"/>
      <point x="344" y="265"/>
      <point x="344" y="298" type="curve" smooth="yes"/>
      <point x="344" y="360"/>
      <point x="292" y="401"/>
      <point x="203" y="401" type="curve" smooth="yes"/>
    </contour>
    <contour>
      <point x="211" y="137"/>
      <point x="234" y="126"/>
      <point x="234" y="107" type="curve" smooth="yes"/>
      <point x="234" y="96"/>
      <point x="223" y="82"/>
      <point x="192" y="82" type="curve" smooth="yes"/>
      <point x="163" y="82"/>
      <point x="149" y="95"/>
      <point x="149" y="114" type="curve" smooth="yes"/>
      <point x="149" y="130"/>
      <point x="157" y="139"/>
      <point x="181" y="147" type="curve"/>
    </contour>
    <contour>
      <point x="215" y="307"/>
      <point x="229" y="297"/>
      <point x="229" y="281" type="curve" smooth="yes"/>
      <point x="229" y="269"/>
      <point x="222" y="257"/>
      <point x="207" y="243" type="curve"/>
      <point x="180" y="254"/>
      <point x="158" y="265"/>
      <point x="158" y="284" type="curve" smooth="yes"/>
      <point x="158" y="298"/>
      <point x="168" y="307"/>
      <point x="193" y="307" type="curve" smooth="yes"/>
    </contour>
  </outline>
</glyph>
<glyph name="left" format="1">
  <advance width="432"/>
  <outline>
    <contour>
      <point x="40" y="235" type="line"/>
      <point x="351" y="80" type="line"/>
      <point x="351" y="391" type="line"/>
    </contour>
  </outline>
</glyph>
<glyph name="nine.dnom" format="1">
  <advance width="366"/>
  <outline>
    <contour>
      <point x="68" y="401"/>
      <point x="15" y="326"/>
      <point x="15" y="261" type="curve"/>
      <point x="15" y="201"/>
      <point x="59" y="139"/>
      <point x="141" y="139" type="curve" smooth="yes"/>
      <point x="155" y="139"/>
      <point x="172" y="140"/>
      <point x="186" y="143" type="curve"/>
      <point x="211" y="115" type="line"/>
      <point x="229" y="242" type="line"/>
      <point x="212" y="237"/>
      <point x="198" y="235"/>
      <point x="186" y="235" type="curve" smooth="yes"/>
      <point x="159" y="235"/>
      <point x="148" y="248"/>
      <point x="148" y="275" type="curve"/>
      <point x="148" y="300"/>
      <point x="159" y="312"/>
      <point x="181" y="312" type="curve"/>
      <point x="215" y="312"/>
      <point x="217" y="287"/>
      <point x="217" y="242" type="curve"/>
      <point x="217" y="144"/>
      <point x="184" y="118"/>
      <point x="45" y="66" type="curve"/>
      <point x="45" y="53" type="line"/>
      <point x="139" y="-8" type="line"/>
      <point x="146" y="-8" type="line"/>
      <point x="275" y="51"/>
      <point x="351" y="142"/>
      <point x="351" y="244" type="curve"/>
      <point x="351" y="341"/>
      <point x="288" y="401"/>
      <point x="185" y="401" type="curve"/>
    </contour>
  </outline>
</glyph>
<glyph name="p.sups" format="1">
  <advance width="401"/>
  <outline>
    <contour>
      <point x="211" y="639"/>
      <point x="189" y="622"/>
      <point x="169" y="600" type="curve"/>
      <point x="152" y="600" type="line"/>
      <point x="153" y="528" type="line"/>
      <point x="167" y="538"/>
      <point x="179" y="542"/>
      <point x="192" y="542" type="curve" smooth="yes"/>
      <point x="225" y="542"/>
      <point x="237" y="520"/>
      <point x="237" y="474" type="curve" smooth="yes"/>
      <point x="237" y="415"/>
      <point x="218" y="399"/>
      <point x="187" y="399" type="curve" smooth="yes"/>
      <point x="153" y="399"/>
      <point x="99" y="425"/>
      <point x="58" y="472" type="curve"/>
      <point x="58" y="352" type="line"/>
      <point x="113" y="325"/>
      <point x="154" y="314"/>
      <point x="196" y="314" type="curve" smooth="yes"/>
      <point x="301" y="314"/>
      <point x="367" y="375"/>
      <point x="367" y="493" type="curve" smooth="yes"/>
      <point x="367" y="592"/>
      <point x="320" y="651"/>
      <point x="236" y="651" type="curve"/>
    </contour>
    <contour>
      <point x="33" y="639" type="line"/>
      <point x="38" y="453" type="line"/>
      <point x="34" y="195" type="line"/>
      <point x="169" y="195" type="line"/>
      <point x="164" y="467" type="line"/>
      <point x="164" y="648" type="line"/>
    </contour>
    <contour>
      <point x="164" y="343" type="line"/>
      <point x="164" y="630" type="line"/>
    </contour>
  </outline>
</glyph>
<glyph name="puso" format="1">
  <advance width="177"/>
  <outline>
    <contour>
      <point x="95" y="143" type="move"/>
    </contour>
    <component base="quotesingle" xOffset="-38" yOffset="-235" yScale="1.21"/>
  </outline>
</glyph>
<glyph name="ringacute" format="1">
  <advance width="388"/>
  <outline>
    <component base="ring" xOffset="1" yOffset="-21"/>
    <component base="acute.cap" xOffset="-57" yOffset="228" xScale="1" yScale="1"/>
    <contour>
      <point x="194" y="452" type="move" name="_top"/>
    </contour>
  </outline>
</glyph>
<glyph name="zero.tosf" format="1">
  <advance width="475"/>
  <outline>
    <contour>
      <point x="106" y="524"/>
      <point x="21" y="419"/>
      <point x="21" y="243" type="curve" smooth="yes"/>
      <point x="21" y="82"/>
      <point x="97" y="-12"/>
      <point x="226" y="-12" type="curve" smooth="yes"/>
      <point x="370" y="-12"/>
      <point x="454" y="92"/>
      <point x="454" y="270" type="curve" smooth="yes"/>
      <point x="454" y="431"/>
      <point x="379" y="524"/>
      <point x="251" y="524" type="curve" smooth="yes"/>
    </contour>
    <contour>
      <point x="285" y="342"/>
      <point x="305" y="317"/>
      <point x="305" y="247" type="curve" smooth="yes"/>
      <point x="305" y="184"/>
      <point x="286" y="159"/>
      <point x="237" y="159" type="curve" smooth="yes"/>
      <point x="188" y="159"/>
      <point x="171" y="187"/>
      <point x="171" y="256" type="curve" smooth="yes"/>
      <point x="171" y="320"/>
      <point x="188" y="342"/>
      <point x="236" y="342" type="curve" smooth="yes"/>
    </contour>
  </outline>
</glyph>
